<svg id="Layer_1" data-name="Layer 1" xmlns="http://www.w3.org/2000/svg" viewBox="0 0 1024 653"><defs><style>.cls-1{font-size:480px;font-family:Chalkboard;}.cls-1,.cls-2{fill:#f4bb38;stroke:#000;stroke-miterlimit:10;stroke-width:10px;}</style></defs><text class="cls-1" transform="translate(22.8 356.27)"><tspan xml:space="preserve">A  D</tspan></text><path class="cls-2" d="M744.11,556.27,672,473.37A18.7,18.7,0,0,0,659.17,467l-12.67-.88c29.44-32.69,45.84-77.56,40.56-127.11C680.9,281.25,630.28,219.66,574.63,203,458,167.94,347.4,264.11,365.9,384.5c8.82,57.43,62.8,116.1,119.17,130.21,48.33,12.1,95.05,2.08,131.5-22.54l-.88,12.67a18.64,18.64,0,0,0,4.52,13.59l72.1,82.9a18.62,18.62,0,0,0,26.35,1.83l23.53-20.46A18.79,18.79,0,0,0,744.11,556.27ZM519.06,457.1a99.74,99.74,0,1,1,106.43-92.57A99.68,99.68,0,0,1,519.06,457.1Z"/></svg>